<mxfile host="65bd71144e">
    <diagram id="ARj0jor0KpYILxrHok7u" name="Database">
        <mxGraphModel dx="1302" dy="948" grid="0" gridSize="10" guides="1" tooltips="1" connect="1" arrows="1" fold="1" page="0" pageScale="1" pageWidth="827" pageHeight="1169" background="none" math="0" shadow="0">
            <root>
                <mxCell id="0"/>
                <mxCell id="1" parent="0"/>
                <mxCell id="2" value="User" style="swimlane;fontStyle=0;childLayout=stackLayout;horizontal=1;startSize=26;horizontalStack=0;resizeParent=1;resizeParentMax=0;resizeLast=0;collapsible=1;marginBottom=0;align=center;fontSize=14;fillColor=#0050ef;fontColor=#ffffff;strokeColor=#001DBC;swimlaneFillColor=none;fillStyle=solid;" parent="1" vertex="1">
                    <mxGeometry x="34" y="171" width="207" height="266" as="geometry"/>
                </mxCell>
                <mxCell id="3" value="[PK] id : UUID" style="text;strokeColor=#0050ef;fillColor=none;spacingLeft=4;spacingRight=4;overflow=hidden;rotatable=0;points=[[0,0.5],[1,0.5]];portConstraint=eastwest;fontSize=12;fontFamily=Courier New;" parent="2" vertex="1">
                    <mxGeometry y="26" width="207" height="30" as="geometry"/>
                </mxCell>
                <mxCell id="17" value="[FK] profile_id : UUID" style="text;strokeColor=#0050ef;fillColor=none;spacingLeft=4;spacingRight=4;overflow=hidden;rotatable=0;points=[[0,0.5],[1,0.5]];portConstraint=eastwest;fontSize=12;fontFamily=Courier New;" parent="2" vertex="1">
                    <mxGeometry y="56" width="207" height="30" as="geometry"/>
                </mxCell>
                <mxCell id="4" value="email : String" style="text;strokeColor=#0050ef;fillColor=none;spacingLeft=4;spacingRight=4;overflow=hidden;rotatable=0;points=[[0,0.5],[1,0.5]];portConstraint=eastwest;fontSize=12;fontFamily=Courier New;" parent="2" vertex="1">
                    <mxGeometry y="86" width="207" height="30" as="geometry"/>
                </mxCell>
                <mxCell id="5" value="password : String" style="text;strokeColor=#0050ef;fillColor=none;spacingLeft=4;spacingRight=4;overflow=hidden;rotatable=0;points=[[0,0.5],[1,0.5]];portConstraint=eastwest;fontSize=12;fontFamily=Courier New;" parent="2" vertex="1">
                    <mxGeometry y="116" width="207" height="30" as="geometry"/>
                </mxCell>
                <mxCell id="16" value="role : String" style="text;strokeColor=#0050ef;fillColor=none;spacingLeft=4;spacingRight=4;overflow=hidden;rotatable=0;points=[[0,0.5],[1,0.5]];portConstraint=eastwest;fontSize=12;fontFamily=Courier New;" parent="2" vertex="1">
                    <mxGeometry y="146" width="207" height="30" as="geometry"/>
                </mxCell>
                <mxCell id="J7B9YtPH-hjHJ7LfMPLn-34" value="is_activated : Boolean" style="text;strokeColor=#0050ef;fillColor=none;spacingLeft=4;spacingRight=4;overflow=hidden;rotatable=0;points=[[0,0.5],[1,0.5]];portConstraint=eastwest;fontSize=12;fontFamily=Courier New;" vertex="1" parent="2">
                    <mxGeometry y="176" width="207" height="30" as="geometry"/>
                </mxCell>
                <mxCell id="27" value="created_at : DateTime" style="text;strokeColor=#0050ef;fillColor=none;spacingLeft=4;spacingRight=4;overflow=hidden;rotatable=0;points=[[0,0.5],[1,0.5]];portConstraint=eastwest;fontSize=12;fontFamily=Courier New;" parent="2" vertex="1">
                    <mxGeometry y="206" width="207" height="30" as="geometry"/>
                </mxCell>
                <mxCell id="28" value="updated_at : DateTime" style="text;strokeColor=#0050ef;fillColor=none;spacingLeft=4;spacingRight=4;overflow=hidden;rotatable=0;points=[[0,0.5],[1,0.5]];portConstraint=eastwest;fontSize=12;fontFamily=Courier New;" parent="2" vertex="1">
                    <mxGeometry y="236" width="207" height="30" as="geometry"/>
                </mxCell>
                <mxCell id="10" value="Profile" style="swimlane;fontStyle=0;childLayout=stackLayout;horizontal=1;startSize=26;horizontalStack=0;resizeParent=1;resizeParentMax=0;resizeLast=0;collapsible=1;marginBottom=0;align=center;fontSize=14;fillColor=#60a917;fontColor=#ffffff;strokeColor=#61a916;swimlaneFillColor=none;fillStyle=solid;" parent="1" vertex="1">
                    <mxGeometry x="355" y="124" width="205" height="146" as="geometry"/>
                </mxCell>
                <mxCell id="11" value="[PK] id : UUID" style="text;strokeColor=#61a916;fillColor=none;spacingLeft=4;spacingRight=4;overflow=hidden;rotatable=0;points=[[0,0.5],[1,0.5]];portConstraint=eastwest;fontSize=12;fontFamily=Courier New;" parent="10" vertex="1">
                    <mxGeometry y="26" width="205" height="30" as="geometry"/>
                </mxCell>
                <mxCell id="23" value="[FK] user_id : UUID" style="text;strokeColor=#61a916;fillColor=none;spacingLeft=4;spacingRight=4;overflow=hidden;rotatable=0;points=[[0,0.5],[1,0.5]];portConstraint=eastwest;fontSize=12;fontFamily=Courier New;" parent="10" vertex="1">
                    <mxGeometry y="56" width="205" height="30" as="geometry"/>
                </mxCell>
                <mxCell id="12" value="birthdate : DateTime" style="text;strokeColor=#61a916;fillColor=none;spacingLeft=4;spacingRight=4;overflow=hidden;rotatable=0;points=[[0,0.5],[1,0.5]];portConstraint=eastwest;fontSize=12;fontFamily=Courier New;" parent="10" vertex="1">
                    <mxGeometry y="86" width="205" height="30" as="geometry"/>
                </mxCell>
                <mxCell id="13" value="..." style="text;strokeColor=#61a916;fillColor=none;spacingLeft=4;spacingRight=4;overflow=hidden;rotatable=0;points=[[0,0.5],[1,0.5]];portConstraint=eastwest;fontSize=12;fontFamily=Courier New;" parent="10" vertex="1">
                    <mxGeometry y="116" width="205" height="30" as="geometry"/>
                </mxCell>
                <mxCell id="19" value="Verification codes" style="swimlane;fontStyle=0;childLayout=stackLayout;horizontal=1;startSize=26;horizontalStack=0;resizeParent=1;resizeParentMax=0;resizeLast=0;collapsible=1;marginBottom=0;align=center;fontSize=14;fillColor=#0050ef;fontColor=#ffffff;strokeColor=#001DBC;swimlaneFillColor=none;fillStyle=solid;" parent="1" vertex="1">
                    <mxGeometry x="34" y="471" width="293" height="176" as="geometry"/>
                </mxCell>
                <mxCell id="26" value="[FK] user_id : UUID" style="text;strokeColor=#0050ef;fillColor=none;spacingLeft=4;spacingRight=4;overflow=hidden;rotatable=0;points=[[0,0.5],[1,0.5]];portConstraint=eastwest;fontSize=12;fontFamily=Courier New;" parent="19" vertex="1">
                    <mxGeometry y="26" width="293" height="30" as="geometry"/>
                </mxCell>
                <mxCell id="21" value="code : Integer(6)" style="text;strokeColor=#0050ef;fillColor=none;spacingLeft=4;spacingRight=4;overflow=hidden;rotatable=0;points=[[0,0.5],[1,0.5]];portConstraint=eastwest;fontSize=12;fontFamily=Courier New;" parent="19" vertex="1">
                    <mxGeometry y="56" width="293" height="30" as="geometry"/>
                </mxCell>
                <mxCell id="22" value="email : String" style="text;strokeColor=#0050ef;fillColor=none;spacingLeft=4;spacingRight=4;overflow=hidden;rotatable=0;points=[[0,0.5],[1,0.5]];portConstraint=eastwest;fontSize=12;fontFamily=Courier New;" parent="19" vertex="1">
                    <mxGeometry y="86" width="293" height="30" as="geometry"/>
                </mxCell>
                <mxCell id="25" value="expire_at : DateTime" style="text;strokeColor=#0050ef;fillColor=none;spacingLeft=4;spacingRight=4;overflow=hidden;rotatable=0;points=[[0,0.5],[1,0.5]];portConstraint=eastwest;fontSize=12;fontFamily=Courier New;" parent="19" vertex="1">
                    <mxGeometry y="116" width="293" height="30" as="geometry"/>
                </mxCell>
                <mxCell id="29" value="created_at : DateTime" style="text;strokeColor=#0050ef;fillColor=none;spacingLeft=4;spacingRight=4;overflow=hidden;rotatable=0;points=[[0,0.5],[1,0.5]];portConstraint=eastwest;fontSize=12;fontFamily=Courier New;" parent="19" vertex="1">
                    <mxGeometry y="146" width="293" height="30" as="geometry"/>
                </mxCell>
                <mxCell id="32" style="edgeStyle=orthogonalEdgeStyle;html=1;exitX=0;exitY=0.5;exitDx=0;exitDy=0;entryX=0;entryY=0.5;entryDx=0;entryDy=0;fontFamily=Courier New;" parent="1" source="3" target="26" edge="1">
                    <mxGeometry relative="1" as="geometry">
                        <Array as="points">
                            <mxPoint x="-17" y="212"/>
                            <mxPoint x="-17" y="513"/>
                            <mxPoint x="3" y="513"/>
                        </Array>
                    </mxGeometry>
                </mxCell>
                <mxCell id="33" style="edgeStyle=orthogonalEdgeStyle;html=1;exitX=0;exitY=0.5;exitDx=0;exitDy=0;entryX=1;entryY=0.5;entryDx=0;entryDy=0;fontFamily=Courier New;fillColor=#60a917;strokeColor=#2D7600;" parent="1" source="11" target="17" edge="1">
                    <mxGeometry relative="1" as="geometry"/>
                </mxCell>
                <mxCell id="34" style="edgeStyle=orthogonalEdgeStyle;html=1;exitX=1;exitY=0.5;exitDx=0;exitDy=0;entryX=0;entryY=0.5;entryDx=0;entryDy=0;fontFamily=Courier New;" parent="1" source="3" target="23" edge="1">
                    <mxGeometry relative="1" as="geometry">
                        <Array as="points">
                            <mxPoint x="267" y="212"/>
                            <mxPoint x="267" y="195"/>
                        </Array>
                    </mxGeometry>
                </mxCell>
            </root>
        </mxGraphModel>
    </diagram>
    <diagram id="F4P1jVzBTriCDQAsInMS" name="Schemas">
        <mxGraphModel dx="544" dy="948" grid="1" gridSize="10" guides="1" tooltips="1" connect="1" arrows="1" fold="1" page="1" pageScale="1" pageWidth="827" pageHeight="1169" math="0" shadow="0">
            <root>
                <mxCell id="0"/>
                <mxCell id="1" parent="0"/>
            </root>
        </mxGraphModel>
    </diagram>
</mxfile>